Coordinates
version=1
nRows=26
nColumns=22
inDegrees=yes

Units are S.I. units (second, meters, Newtons, ...)
If the header above contains a line with 'inDegrees', this indicates whether rotational values are in degrees (yes) or radians (no).

endheader
time	pelvis_tilt	pelvis_list	pelvis_rotation	pelvis_tx	pelvis_ty	pelvis_tz	hip_flexion_r	hip_adduction_r	hip_rotation_r	knee_angle_r	ankle_angle_r	subtalar_angle_r	hip_flexion_l	hip_adduction_l	hip_rotation_l	knee_angle_l	ankle_angle_l	subtalar_angle_l	lumbar_extension	lumbar_bending	lumbar_rotation
      1.45000000	      0.43066158	     -1.86722654	      0.23283515	     -1.71288862	      1.07132219	     -0.32175930	     -0.29231276	      4.19842236	     -2.36412958	    -15.75543149	     16.81707325	     -4.28080174	      7.23933937	     -2.98810699	      2.05209700	    -28.66354363	     15.77616497	      3.73639380	     -4.61277546	     -0.74030524	     -4.95857047
      1.46000000	      0.37430480	     -1.98271338	      0.17857959	     -1.71214067	      1.07094526	     -0.32021505	     -0.28868869	      4.40867529	     -2.28354901	    -15.72685957	     16.72473202	     -4.37461100	      8.17769546	     -3.09874523	      2.29547900	    -30.35221332	     15.36887119	      4.05984629	     -4.80910484	     -0.63774514	     -4.81612388
      1.47000000	      0.31368622	     -2.08516987	      0.13228233	     -1.71134032	      1.07058164	     -0.31873805	     -0.28747628	      4.60158830	     -2.21812199	    -15.69189851	     16.62549420	     -4.49590324	      9.16990098	     -3.17519347	      2.57843715	    -32.11692699	     14.85588756	      4.41512991	     -5.00314393	     -0.54731892	     -4.67166219
      1.48000000	      0.25347299	     -2.17477261	      0.09455562	     -1.71046782	      1.07023086	     -0.31733874	     -0.29413156	      4.77616561	     -2.16444250	    -15.65225021	     16.52940445	     -4.63355573	     10.20367488	     -3.21955329	      2.88106662	    -33.93915166	     14.24292833	      4.79526928	     -5.19955554	     -0.46697400	     -4.52835372
      1.49000000	      0.18890869	     -2.24826986	      0.06038178	     -1.70951034	      1.06988616	     -0.31600835	     -0.30455524	      4.92935371	     -2.12182054	    -15.60762421	     16.44928294	     -4.77975425	     11.27349475	     -3.23197340	      3.17848677	    -35.79030625	     13.54976247	      5.20857995	     -5.39025157	     -0.40131137	     -4.38216717
      1.50000000	      0.12598269	     -2.31328287	      0.03056569	     -1.70846086	      1.06955683	     -0.31474803	     -0.32794626	      5.06900280	     -2.09059566	    -15.55283122	     16.37726409	     -4.91794425	     12.36166118	     -3.22369148	      3.45829408	    -37.63758049	     12.81472025	      5.63482555	     -5.58435601	     -0.34312148	     -4.23424767
      1.51000000	      0.06171774	     -2.36136102	      0.00192064	     -1.70728094	      1.06924008	     -0.31356668	     -0.36334344	      5.18437742	     -2.07017134	    -15.48890381	     16.33227628	     -5.04473616	     13.45650541	     -3.19235153	      3.69014074	    -39.44298128	     12.07463877	      6.07006058	     -5.77117226	     -0.29997326	     -4.07941201
      1.52000000	     -0.00171904	     -2.39077836	     -0.02841044	     -1.70597372	      1.06894877	     -0.31246517	     -0.41381891	      5.27264977	     -2.05957744	    -15.41299340	     16.30327105	     -5.15063866	     14.54193515	     -3.13889963	      3.86578090	    -41.16421405	     11.38652122	      6.47852034	     -5.95762129	     -0.27459254	     -3.92293500
      1.53000000	     -0.06207690	     -2.39961777	     -0.05860779	     -1.70452163	      1.06869611	     -0.31144497	     -0.48378348	      5.33180665	     -2.06014104	    -15.32350286	     16.28548423	     -5.22630722	     15.60289226	     -3.06310353	      3.98232690	    -42.76137862	     10.79789142	      6.81181179	     -6.14356254	     -0.26987076	     -3.76150708
      1.54000000	     -0.12586731	     -2.37686969	     -0.09262580	     -1.70289697	      1.06847898	     -0.31049835	     -0.57145744	      5.34918567	     -2.07474241	    -15.21265328	     16.29016186	     -5.27076856	     16.63665245	     -2.96258978	      4.01142246	    -44.20075850	     10.34393854	      7.04390963	     -6.31850369	     -0.29883260	     -3.60671668
      1.55000000	     -0.18451889	     -2.32255507	     -0.12725863	     -1.70108092	      1.06832167	     -0.30963495	     -0.69060901	      5.32544282	     -2.09837633	    -15.07336073	     16.28734372	     -5.27659438	     17.62294625	     -2.83504809	      3.96533683	    -45.44985593	     10.02574857	      7.13919413	     -6.48933555	     -0.36179347	     -3.44873586
      1.56000000	     -0.25607889	     -2.24345999	     -0.16541087	     -1.69912474	      1.06817297	     -0.30883971	     -0.80117212	      5.26770216	     -2.13572006	    -14.94215912	     16.33601811	     -5.25610860	     18.58788053	     -2.69333662	      3.83879926	    -46.50403059	      9.85635550	      7.12081175	     -6.64342833	     -0.45020341	     -3.29930740
      1.57000000	     -0.32872833	     -2.13647993	     -0.20476520	     -1.69696596	      1.06806279	     -0.30810600	     -0.93515085	      5.17508700	     -2.18358282	    -14.78564478	     16.38139491	     -5.20800616	     19.50558038	     -2.53709739	      3.63199133	    -47.33988633	      9.78910200	      6.99764550	     -6.78338826	     -0.56984172	     -3.15108143
      1.58000000	     -0.39059126	     -2.00433586	     -0.24551003	     -1.69462159	      1.06799333	     -0.30741521	     -1.10246648	      5.05345953	     -2.21755018	    -14.61026722	     16.45854999	     -5.14752933	     20.36369192	     -2.37372172	      3.34704881	    -47.95412346	      9.77453656	      6.82578062	     -6.92834043	     -0.71840421	     -3.02525311
      1.59000000	     -0.48398983	     -1.87461761	     -0.28248403	     -1.69209891	      1.06788592	     -0.30678077	     -1.24560713	      4.92952716	     -2.29741751	    -14.43211092	     16.50357875	     -5.06226379	     21.21217265	     -2.22633720	      3.01104829	    -48.35807784	      9.81174636	      6.54169382	     -7.02617311	     -0.86293665	     -2.88437637
      1.60000000	     -0.55831022	     -1.71909069	     -0.32432797	     -1.68938460	      1.06780707	     -0.30618215	     -1.42811308	      4.77773865	     -2.35374450	    -14.24029122	     16.57015035	     -4.98249405	     21.98513954	     -2.07160655	      2.61216266	    -48.53815419	      9.85848809	      6.27573247	     -7.13702898	     -1.03563404	     -2.76006565
      1.61000000	     -0.62769257	     -1.55220419	     -0.35660634	     -1.68647315	      1.06772245	     -0.30563841	     -1.63636595	      4.61596698	     -2.39401643	    -14.03048631	     16.61528040	     -4.91628219	     22.69928239	     -1.91443069	      2.18374673	    -48.50727129	      9.93830822	      6.06274894	     -7.24414175	     -1.21761867	     -2.66965053
      1.62000000	     -0.71378026	     -1.40172078	     -0.40638446	     -1.68342726	      1.06755659	     -0.30508383	     -1.81203849	      4.47049067	     -2.44341939	    -13.86349208	     16.73003226	     -4.81819716	     23.39314037	     -1.80434686	      1.68963529	    -48.29369673	      9.91814418	      5.65840079	     -7.32975933	     -1.38581974	     -2.54082394
      1.63000000	     -0.78830944	     -1.22446401	     -0.44920921	     -1.68016883	      1.06737630	     -0.30459268	     -2.01834405	      4.29625045	     -2.48638443	    -13.68227193	     16.82370278	     -4.76795628	     24.00903802	     -1.66482736	      1.19747108	    -47.87320583	      9.94193609	      5.44672768	     -7.41681976	     -1.58302033	     -2.41259709
      1.64000000	     -0.86685272	     -1.05096611	     -0.48440247	     -1.67674542	      1.06713177	     -0.30415095	     -2.22144878	      4.12746657	     -2.51329110	    -13.51609832	     16.89380731	     -4.73331699	     24.57859733	     -1.53593373	      0.69372374	    -47.27464119	      9.96838827	      5.26660485	     -7.49530275	     -1.77034221	     -2.32436014
      1.65000000	     -0.91930682	     -0.87840186	     -0.53743736	     -1.67316873	      1.06683838	     -0.30371475	     -2.44142009	      3.95669614	     -2.53562035	    -13.38629971	     17.04469689	     -4.71466114	     25.07374204	     -1.42987654	      0.14178518	    -46.51947882	      9.92324601	      4.97013654	     -7.60339485	     -1.96289215	     -2.19491432
      1.66000000	     -0.99397824	     -0.70086806	     -0.56295910	     -1.66939387	      1.06644882	     -0.30337639	     -2.64261216	      3.78007971	     -2.57980451	    -13.26659557	     17.16266822	     -4.72735479	     25.53564904	     -1.29992585	     -0.36364394	    -45.60243293	      9.92085863	      4.85345114	     -7.67543167	     -2.15431922	     -2.08714211
      1.67000000	     -1.05257678	     -0.52314478	     -0.58471995	     -1.66544483	      1.06600437	     -0.30307167	     -2.85791192	      3.60285187	     -2.61683668	    -13.16966429	     17.28907769	     -4.77326028	     25.92953801	     -1.17409712	     -0.87722548	    -44.54739399	      9.91551178	      4.74136436	     -7.76309243	     -2.34753517	     -2.00018097
      1.68000000	     -1.10646233	     -0.34704742	     -0.58871033	     -1.66129984	      1.06549040	     -0.30285472	     -3.08099497	      3.42489571	     -2.66710955	    -13.08709510	     17.41757287	     -4.85284428	     26.26743069	     -1.03668961	     -1.36316287	    -43.36805284	      9.91612570	      4.67233128	     -7.84787552	     -2.53406606	     -1.91750104
      1.69000000	     -1.19831976	     -0.17111005	     -0.57090843	     -1.65699198	      1.06483460	     -0.30271600	     -3.25239670	      3.24486703	     -2.74922592	    -13.04280004	     17.57143191	     -4.92227682	     26.60413873	     -0.88185025	     -1.80526677	    -42.08859768	      9.91052705	      4.67916905	     -7.88367549	     -2.71881599	     -1.84168278
      1.70000000	     -1.27767071	      0.00920702	     -0.54495961	     -1.65249865	      1.06412801	     -0.30263152	     -3.43771834	      3.05969680	     -2.82376565	    -13.01759550	     17.73397551	     -5.01829548	     26.88009099	     -0.71721160	     -2.23909795	    -40.71505471	      9.87934139	      4.70515506	     -7.92903980	     -2.90709147	     -1.78521098
